<svg width="32" height="32" viewBox="0 0 32 32" fill="none" xmlns="http://www.w3.org/2000/svg">
<path d="M10.4076 3.47076C10.939 4.39113 12.0712 4.7484 13.102 4.4897C14.0295 4.25694 15.0003 4.13333 15.9999 4.13333C16.9848 4.13333 17.9417 4.25333 18.8568 4.47949C19.8858 4.73383 21.0137 4.37543 21.5437 3.45745C22.1617 2.38708 21.7272 1.00414 20.542 0.653871C19.1021 0.228375 17.5777 0 15.9999 0C14.4021 0 12.859 0.234214 11.403 0.670182C10.2221 1.02379 9.79125 2.40321 10.4076 3.47076Z" fill="#F5B40B"/>
<path d="M4.94237 4.43581C5.83834 3.57885 7.259 3.89179 7.87891 4.9655C8.40697 5.88013 8.15766 7.03181 7.42729 7.79467C6.46492 8.79985 5.67759 9.97399 5.11427 11.2681C4.73037 12.15 3.90462 12.8 2.94277 12.8C1.58739 12.8 0.566816 11.5501 1.05113 10.2842C1.90542 8.05127 3.24562 6.05869 4.94237 4.43581Z" fill="#9B055A"/>
<path d="M2.01663 16C3.15802 16 4.11446 16.9329 4.31097 18.0572C5.28508 23.6305 10.1479 27.8667 16 27.8667C21.8521 27.8667 26.7149 23.6305 27.689 18.0572C27.8855 16.9329 28.8419 16 29.9833 16C31.1247 16 32.014 16.9301 31.8683 18.0622C30.8566 25.9247 24.1378 32 16 32C7.86216 32 1.14333 25.9247 0.131628 18.0622C-0.01404 16.9301 0.875241 16 2.01663 16Z" fill="white"/>
<path d="M29.0298 12.7333C30.3901 12.7333 31.412 11.4759 30.9194 10.2079C30.0569 7.9878 28.7132 6.00792 27.0162 4.39637C26.1195 3.5448 24.7037 3.85907 24.0854 4.93C23.5559 5.84699 23.8084 7.00189 24.5433 7.76412C25.5052 8.76166 26.294 9.92724 26.8613 11.2125C27.2482 12.0889 28.0718 12.7333 29.0298 12.7333Z" fill="#D20B09"/>
<path d="M8.26997 11.7112C7.56637 10.9317 8.35287 9.69341 9.31267 10.0694L17.1156 13.1258C18.885 13.8189 19.5585 16.0676 18.4836 17.6924C17.4341 19.2785 15.2542 19.4512 13.9886 18.0484L8.26997 11.7112Z" fill="white"/>
</svg>
