<svg id="Layer_1" data-name="Layer 1" xmlns="http://www.w3.org/2000/svg" viewBox="0 0 480.3 472.1"><defs><style>.cls-1{fill:#d20b09;}.cls-2{fill:#9b055a;}.cls-3{fill:#f5b40b;}.cls-4{fill:#fff;}</style></defs><title>PATCH_MINOR_MAJOR-04</title><path class="cls-1" d="M415.3,249.2a166,166,0,0,0-82.9-138.6L367.8,45a241.6,241.6,0,0,1,51.7,39.4,238.78,238.78,0,0,1,70.3,164.9H415.3Z" transform="translate(-9.5 -13.9)"/><path class="cls-2" d="M83.9,249.2H9.5A238.29,238.29,0,0,1,79.8,84.4,241.6,241.6,0,0,1,131.5,45l35.3,65.7A166,166,0,0,0,83.9,249.2Z" transform="translate(-9.5 -13.9)"/><path class="cls-3" d="M249.6,13.9A239.05,239.05,0,0,1,358.9,40.1l-35.3,65.7a165.21,165.21,0,0,0-148,0L140.3,40.1A238.1,238.1,0,0,1,249.6,13.9Z" transform="translate(-9.5 -13.9)"/><polygon class="cls-4" points="388.1 80 365.4 93.2 374.8 68.7 367.8 62.7 345.7 88.7 351 93.3 357.1 86.2 367 73.5 357.5 98.8 361.1 101.9 384.7 88.5 373.7 100.3 367.6 107.4 373 112 395.2 86 388.1 80"/><path class="cls-4" d="M429.1,213.9l12.3-2.4,1.1,5.5-11.1,8.7,1.4,7.4.3-.1,12.3-9.9a9.54,9.54,0,0,0,10.5,4.2,9.47,9.47,0,0,0,6.9-4.7c1.3-2.5,1.6-5.7.9-9.7l-2.4-12.5-33.5,6.5Zm27.9-5.5,1.1,5.6a5.26,5.26,0,0,1-.6,4.4,5,5,0,0,1-3.5,2.1,4.6,4.6,0,0,1-3.9-.7A5.49,5.49,0,0,1,448,216l-1.1-5.6Z" transform="translate(-9.5 -13.9)"/><path class="cls-4" d="M433.4,169.8l-1.6.6a20.21,20.21,0,0,0-7.5,4.8,12.86,12.86,0,0,0-3.6,6.9,15,15,0,0,0,.8,7.8,13.77,13.77,0,0,0,4.6,6.4,13.27,13.27,0,0,0,7.3,2.7,22.06,22.06,0,0,0,8.9-1.4l1.4-.5a22,22,0,0,0,7.7-4.8,13,13,0,0,0,3.7-6.9,14,14,0,0,0-.7-7.8,14.29,14.29,0,0,0-4.6-6.4,13.27,13.27,0,0,0-7.3-2.7A18.23,18.23,0,0,0,433.4,169.8Zm10.9,5.6a6.16,6.16,0,0,1,4.5,4.2,6.29,6.29,0,0,1-.7,6.1c-1.3,1.9-3.6,3.4-7,4.7l-1.6.6c-3.3,1.2-6.1,1.6-8.3,1a6,6,0,0,1-4.5-4.1,6.25,6.25,0,0,1,.8-6.2c1.4-1.9,3.7-3.4,6.9-4.7l1.6-.6C439.4,175.2,442.1,174.8,444.3,175.4Z" transform="translate(-9.5 -13.9)"/><polygon class="cls-4" points="104.1 69.3 98.9 74.1 108.2 84.3 98 93.5 88.7 83.3 83.5 88 106.4 113.3 111.6 108.6 101.8 97.7 112 88.5 121.8 99.4 127 94.7 104.1 69.3"/><path class="cls-4" d="M416.5,162.4a3.91,3.91,0,0,1-2.8-2.1,4.63,4.63,0,0,1-.6-3.5,5,5,0,0,1,2.7-2.7l-3.5-6.2c-2.9,1.7-4.7,3.8-5.3,6.5s0,5.6,1.8,8.7a13.76,13.76,0,0,0,4.1,4.5,9.49,9.49,0,0,0,5.4,1.6,11,11,0,0,0,5.7-1.6l20.6-11.7-3.5-6.1-20.6,11.7A6.4,6.4,0,0,1,416.5,162.4Z" transform="translate(-9.5 -13.9)"/><path class="cls-4" d="M104.7,122.6l-4.3,5.5a6.73,6.73,0,0,1,2.5,4.3c.1,1.5-.5,3-1.8,4.8-1.5,1.9-3.2,2.8-5.3,2.6s-4.5-1.4-7.4-3.7l-2-1.6c-2.8-2.2-4.4-4.3-5-6.2a5.83,5.83,0,0,1,1.3-5.7,6.63,6.63,0,0,1,4.2-2.9,7.16,7.16,0,0,1,4.9,1.5l4.3-5.5a12.76,12.76,0,0,0-9.6-2.2,14.28,14.28,0,0,0-8.4,5.5,13.65,13.65,0,0,0-3.1,7.1,12.71,12.71,0,0,0,1.5,7.5,20.19,20.19,0,0,0,5.8,6.7l1.6,1.3c4,3.2,8,4.7,11.9,4.5a13.15,13.15,0,0,0,9.9-5.4,14.3,14.3,0,0,0,3.5-9.6A13,13,0,0,0,104.7,122.6Z" transform="translate(-9.5 -13.9)"/><path class="cls-4" d="M383.9,127.6l4.6,5.9,7-2.5,7.7,9.7-4,6.2,4.6,5.9,18.8-31.2-4.1-5.1Zm22.6,8-5.3-6.7,12.7-4.6Z" transform="translate(-9.5 -13.9)"/><path class="cls-4" d="M270.7,69.8a14.82,14.82,0,0,0,7.2,3.2,14.57,14.57,0,0,0,7.8-.9,13,13,0,0,0,5.9-5,19.56,19.56,0,0,0,3.1-8.5l.2-1.5a20.62,20.62,0,0,0-.4-9,13.45,13.45,0,0,0-4.2-6.6,14,14,0,0,0-7.2-3.2,14.57,14.57,0,0,0-7.8.9,13.74,13.74,0,0,0-6,5,21.54,21.54,0,0,0-3.2,8.5l-.3,1.7a20.2,20.2,0,0,0,.5,8.9A15,15,0,0,0,270.7,69.8ZM273,55.3l.3-1.6c.6-3.5,1.6-6.1,3.2-7.7a6.26,6.26,0,0,1,5.8-1.9,6.53,6.53,0,0,1,5,3.6c1,2,1.2,4.8.7,8.4l-.3,1.6c-.6,3.5-1.6,6.1-3.1,7.7a6.71,6.71,0,0,1-10.8-1.8C272.7,61.5,272.5,58.7,273,55.3Z" transform="translate(-9.5 -13.9)"/><polygon class="cls-4" points="61.5 124.7 56.5 121.9 42.9 146.2 47.9 148.9 52.9 139.9 77.8 153.8 81.2 147.7 56.3 133.8 61.5 124.7"/><rect class="cls-4" x="217.11" y="38.29" width="7" height="34.2" transform="translate(-15.16 18.28) rotate(-8.24)"/><path class="cls-4" d="M306.6,66.2l5.3,1.8L314,81.9l7.2,2.4.1-.3-2.6-15.6a9.68,9.68,0,0,0,5.5-2.1,11.32,11.32,0,0,0,3.3-5.1,9.53,9.53,0,0,0-.7-8.3c-1.5-2.4-4.2-4.2-8-5.5l-12-4L296,75.8l6.7,2.2Zm5-15.2,5.4,1.8a6.07,6.07,0,0,1,3.6,2.6,5,5,0,0,1,.1,4,4.8,4.8,0,0,1-2.6,3.1,6.31,6.31,0,0,1-4.3,0l-5.4-1.8Z" transform="translate(-9.5 -13.9)"/><polygon class="cls-4" points="229.5 56.6 229.1 34.2 243.2 56.4 250.3 56.2 249.6 22.1 242.6 22.2 243 44.7 228.9 22.5 221.8 22.6 222.5 56.8 229.5 56.6"/><path class="cls-4" d="M44.5,180l27.4,24,2.7-7-5.8-4.7,4.4-11.5,7.4.3,2.7-7-36.5-.2Zm22.7.5-3,8L53.7,180Z" transform="translate(-9.5 -13.9)"/><polygon class="cls-4" points="176.8 67.3 174.2 58.3 168.9 43.1 185 64.9 189.6 63.5 191.1 36.4 195.1 52.1 197.8 61 204.5 59 194.7 26.3 185.9 28.9 184.6 55.2 169.1 33.9 160.3 36.6 170.1 69.3 176.8 67.3"/><path class="cls-4" d="M58.5,210.9c.9-4,.6-7.3-.8-9.9a9.91,9.91,0,0,0-7-5.1,10.76,10.76,0,0,0-11,3.8,15.17,15.17,0,0,0-2.8,6.3L34,219l33.4,7.4,1.5-6.9-11.8-2.6ZM53,209.5l-1.4,6.1-10.5-2.3,1.4-6.3a5.32,5.32,0,0,1,2.4-3.6,6.11,6.11,0,0,1,4.3-.6,4.79,4.79,0,0,1,3.3,2.2A6.52,6.52,0,0,1,53,209.5Z" transform="translate(-9.5 -13.9)"/><path d="M281.3,274.2l89.1-96.8a.91.91,0,0,0,0-1.2.66.66,0,0,0-.7-.2L240.4,200.6A44.38,44.38,0,1,0,257,287.8,45,45,0,0,0,281.3,274.2Z" transform="translate(-9.5 -13.9)"/><polygon points="62.2 326.3 75.5 313 56.9 315.7 62.2 326.3"/><path d="M249.6,395.2c-77.7,0-141.8-59.5-149.1-135.4H9.5A240.51,240.51,0,0,0,419.7,415.5a238.66,238.66,0,0,0,70-155.7h-91C391.4,335.7,327.4,395.2,249.6,395.2ZM58.5,353.4l7.3-7.3-7.7-15.4-10.2,1.4-4.6-9.3,50.5-5.3,4,8.1L63.1,362.7Zm33.8,39.7c-4.4-.6-8.4-3-12-7.4s-5.2-8.6-5-13,2.2-8.3,6.2-11.6l24.4-20.2,6.3,7.6L88,368.5c-2.4,2-3.7,4-3.8,6.1a8.53,8.53,0,0,0,2.3,6.1c3.5,4.2,7.5,4.6,12.1.9L123,361.4l6.3,7.6L105,389C101,392.3,96.8,393.7,92.3,393.1Zm27.8,29.3-7.8-6,24.1-31.5L125,376.1l4.8-6.3,30.8,23.6-4.8,6.3-11.6-8.9Zm67.4,8.3-.9,1.9a27.49,27.49,0,0,1-7.4,10.2,19.71,19.71,0,0,1-32.4-14.7,27.17,27.17,0,0,1,2.7-12.1l1-2.1a27.49,27.49,0,0,1,7.4-10.2,19.43,19.43,0,0,1,9.9-4.5,18.81,18.81,0,0,1,10.8,1.8,19.36,19.36,0,0,1,8.4,7,18.46,18.46,0,0,1,3.1,10.4A26.51,26.51,0,0,1,187.5,430.7Zm60.6,1.5a14.7,14.7,0,0,1-2.9,7.9,14.37,14.37,0,0,1-6.9,4.5l8.3,20.4v.5l-10.5-1-7.2-18.2-7.8-.8-1.7,17.3-9.8-1,4.7-47.4,17.6,1.7c5.6.6,9.8,2.2,12.6,5S248.6,427.6,248.1,432.2ZM258.5,465l-5-47.3,31.7-3.4.8,7.9-21.9,2.3,1.2,11.3,18.7-2,.8,7.6-18.7,2,1.3,12.7,22-2.3.8,7.8Zm45.3-6.5-14.2-45.4,9.4-2.9,11.8,37.9,19.9-6.2,2.3,7.5Zm37.5-13.4-22.7-41.8,28-15.2,3.8,7L331,405.6l5.4,10,16.6-9,3.7,6.8-16.6,9,6.1,11.2L365.6,423l3.8,6.9Zm61-41.9-8.9-5.2-13,11.3,4,9.6-7.9,6.8L358.7,378l6.9-6,44.7,24.3ZM426.5,376a24.34,24.34,0,0,1-7.5,6.9,16.28,16.28,0,0,1-8.5,2.3,14.5,14.5,0,0,1-8-2.9l5.8-8c4.2,3.1,8.2,2.1,11.9-3a9,9,0,0,0,2.1-5.3,4.59,4.59,0,0,0-2.1-3.9,4.9,4.9,0,0,0-4.6-.9,26.68,26.68,0,0,0-6.7,3.9,54.48,54.48,0,0,1-7.4,4.6c-5.5,2.6-10.3,2.5-14.3-.4a11.71,11.71,0,0,1-4.3-5.8,13.74,13.74,0,0,1-.1-7.8,23.12,23.12,0,0,1,4-8.4,23.67,23.67,0,0,1,6.8-6.3,14.22,14.22,0,0,1,7.9-1.9,13.21,13.21,0,0,1,7.5,2.7l-5.8,7.9a6.31,6.31,0,0,0-5.3-1.3A8.62,8.62,0,0,0,393,352a9.24,9.24,0,0,0-2.1,5.4,4.64,4.64,0,0,0,2.1,4,4.73,4.73,0,0,0,4.5.4,24,24,0,0,0,6.4-3.8c4.6-3.5,10.2-7.6,13.7-8.2a12.48,12.48,0,0,1,9.8,2.4c3.3,2.4,3.5,7.6,3.6,11.5S429.6,371.8,426.5,376Zm-14.7-74.2,7.3,3.2-9,20.1,10.4,4.6,7.7-17.2,7,3.1-7.7,17.2,11.6,5.2,9-20.2,7.2,3.2-13,29.1-43.5-19.4Z" transform="translate(-9.5 -13.9)"/><path d="M231.2,424l-7.8-.8L222,437.4l7.9.8a8.42,8.42,0,0,0,5.9-1.3,6.59,6.59,0,0,0,2.5-5,7.18,7.18,0,0,0-1.4-5.5Q235.25,424.45,231.2,424Z" transform="translate(-9.5 -13.9)"/><path d="M175.4,408.4a8.83,8.83,0,0,0-8.5.3c-2.7,1.6-5.1,4.6-7.1,9.1l-1,2.1c-2,4.4-2.8,8.2-2.2,11.4a8.7,8.7,0,0,0,5.4,6.9,8.58,8.58,0,0,0,8.5-.4c2.7-1.6,5.1-4.7,7.1-9.2l1-2.1c2.1-4.5,2.8-8.4,2.3-11.5A9.33,9.33,0,0,0,175.4,408.4Z" transform="translate(-9.5 -13.9)"/><polygon points="376.7 379.8 360.5 370.2 367.7 387.6 376.7 379.8"/></svg>